<mxfile host="app.diagrams.net" modified="2023-11-23T13:35:47.317Z" agent="Mozilla/5.0 (Windows NT 10.0; Win64; x64) AppleWebKit/537.36 (KHTML, like Gecko) Chrome/119.0.0.0 Safari/537.36" version="22.1.3" etag="9ebNPLreUWBE8su1c8o9" type="github">
  <diagram name="Сторінка-1" id="vtY1YH1lKhvYjG6m317V">
    <mxGraphModel>
      <root>
        <mxCell id="0" />
        <mxCell id="1" parent="0" />
      </root>
    </mxGraphModel>
  </diagram>
</mxfile>
